<mxfile host="Electron" agent="Mozilla/5.0 (Windows NT 10.0; Win64; x64) AppleWebKit/537.36 (KHTML, like Gecko) draw.io/26.0.16 Chrome/132.0.6834.196 Electron/34.2.0 Safari/537.36" version="26.0.16" pages="2">
  <diagram name="Page-1" id="PWielzTacpCho7yTXyHP">
    <mxGraphModel dx="691" dy="402" grid="1" gridSize="10" guides="1" tooltips="1" connect="1" arrows="1" fold="1" page="1" pageScale="1" pageWidth="1169" pageHeight="1654" math="0" shadow="0">
      <root>
        <mxCell id="0" />
        <mxCell id="1" parent="0" />
        <mxCell id="f5gqh0zy71j3lXvTN9aF-2" value="Gerrit&lt;div&gt;(Code Management)&lt;/div&gt;" style="rounded=1;whiteSpace=wrap;html=1;" parent="1" vertex="1">
          <mxGeometry x="557.5" y="160" width="120" height="60" as="geometry" />
        </mxCell>
        <mxCell id="f5gqh0zy71j3lXvTN9aF-3" value="Opendev&lt;div&gt;(Source Code)&lt;/div&gt;" style="rounded=1;whiteSpace=wrap;html=1;" parent="1" vertex="1">
          <mxGeometry x="557.5" y="360" width="120" height="60" as="geometry" />
        </mxCell>
        <mxCell id="f5gqh0zy71j3lXvTN9aF-4" value="Zuul&lt;div&gt;(CI/CD)&lt;/div&gt;" style="rounded=1;whiteSpace=wrap;html=1;" parent="1" vertex="1">
          <mxGeometry x="557.5" y="260" width="120" height="60" as="geometry" />
        </mxCell>
        <mxCell id="f5gqh0zy71j3lXvTN9aF-5" value="Launchpad / Storyboard&lt;div&gt;(Bug and Task Tracking)&lt;/div&gt;" style="rounded=1;whiteSpace=wrap;html=1;" parent="1" vertex="1">
          <mxGeometry x="550" y="60" width="135" height="60" as="geometry" />
        </mxCell>
        <mxCell id="f5gqh0zy71j3lXvTN9aF-9" value="Changes" style="endArrow=classic;html=1;rounded=0;dashed=1;exitX=0.5;exitY=1;exitDx=0;exitDy=0;entryX=0.5;entryY=0;entryDx=0;entryDy=0;startArrow=classic;startFill=1;" parent="1" source="f5gqh0zy71j3lXvTN9aF-5" target="f5gqh0zy71j3lXvTN9aF-2" edge="1">
          <mxGeometry width="50" height="50" relative="1" as="geometry">
            <mxPoint x="200" y="700" as="sourcePoint" />
            <mxPoint x="250" y="650" as="targetPoint" />
          </mxGeometry>
        </mxCell>
        <mxCell id="f5gqh0zy71j3lXvTN9aF-12" value="Triggers" style="endArrow=classic;html=1;rounded=0;dashed=1;exitX=0.75;exitY=1;exitDx=0;exitDy=0;entryX=0.75;entryY=0;entryDx=0;entryDy=0;" parent="1" source="f5gqh0zy71j3lXvTN9aF-2" target="f5gqh0zy71j3lXvTN9aF-4" edge="1">
          <mxGeometry width="50" height="50" relative="1" as="geometry">
            <mxPoint x="1020" y="640" as="sourcePoint" />
            <mxPoint x="1070" y="590" as="targetPoint" />
          </mxGeometry>
        </mxCell>
        <mxCell id="f5gqh0zy71j3lXvTN9aF-13" value="Reports" style="endArrow=classic;html=1;rounded=0;dashed=1;entryX=0.25;entryY=1;entryDx=0;entryDy=0;exitX=0.25;exitY=0;exitDx=0;exitDy=0;" parent="1" source="f5gqh0zy71j3lXvTN9aF-4" target="f5gqh0zy71j3lXvTN9aF-2" edge="1">
          <mxGeometry width="50" height="50" relative="1" as="geometry">
            <mxPoint x="210" y="630" as="sourcePoint" />
            <mxPoint x="260" y="580" as="targetPoint" />
          </mxGeometry>
        </mxCell>
        <mxCell id="f5gqh0zy71j3lXvTN9aF-14" value="Merge Changes" style="endArrow=classic;html=1;rounded=0;dashed=1;exitX=0.5;exitY=1;exitDx=0;exitDy=0;entryX=0.5;entryY=0;entryDx=0;entryDy=0;" parent="1" source="f5gqh0zy71j3lXvTN9aF-4" target="f5gqh0zy71j3lXvTN9aF-3" edge="1">
          <mxGeometry width="50" height="50" relative="1" as="geometry">
            <mxPoint x="510" y="760" as="sourcePoint" />
            <mxPoint x="560" y="710" as="targetPoint" />
          </mxGeometry>
        </mxCell>
        <mxCell id="FZHWspQjjUwCtINhZ0zK-2" value="Reviews" style="endArrow=classic;html=1;rounded=0;exitX=0;exitY=0.25;exitDx=0;exitDy=0;entryX=0;entryY=0.75;entryDx=0;entryDy=0;" parent="1" source="f5gqh0zy71j3lXvTN9aF-2" target="f5gqh0zy71j3lXvTN9aF-2" edge="1">
          <mxGeometry width="50" height="50" relative="1" as="geometry">
            <mxPoint x="390" y="230" as="sourcePoint" />
            <mxPoint x="530" y="210" as="targetPoint" />
            <Array as="points">
              <mxPoint x="510" y="175" />
              <mxPoint x="510" y="205" />
            </Array>
          </mxGeometry>
        </mxCell>
      </root>
    </mxGraphModel>
  </diagram>
  <diagram id="TYI9E6sU0CO1NQXqSOyD" name="Page-2">
    <mxGraphModel dx="1160" dy="793" grid="1" gridSize="10" guides="1" tooltips="1" connect="1" arrows="1" fold="1" page="1" pageScale="1" pageWidth="1169" pageHeight="1654" math="0" shadow="0">
      <root>
        <mxCell id="0" />
        <mxCell id="1" parent="0" />
        <mxCell id="vDY9TQcYffj6j2nIrHVJ-1" value="project-config" style="rounded=1;whiteSpace=wrap;html=1;" parent="1" vertex="1">
          <mxGeometry x="670" y="320" width="120" height="60" as="geometry" />
        </mxCell>
        <mxCell id="vDY9TQcYffj6j2nIrHVJ-3" value="openstack-zuul-jobs" style="rounded=1;whiteSpace=wrap;html=1;" parent="1" vertex="1">
          <mxGeometry x="370" y="320" width="120" height="60" as="geometry" />
        </mxCell>
        <mxCell id="vDY9TQcYffj6j2nIrHVJ-4" value="nova" style="rounded=1;whiteSpace=wrap;html=1;" parent="1" vertex="1">
          <mxGeometry x="520" y="400" width="120" height="60" as="geometry" />
        </mxCell>
        <mxCell id="vDY9TQcYffj6j2nIrHVJ-5" value="" style="endArrow=classic;html=1;rounded=0;exitX=1;exitY=1;exitDx=0;exitDy=0;entryX=0;entryY=0;entryDx=0;entryDy=0;" parent="1" source="vDY9TQcYffj6j2nIrHVJ-3" target="vDY9TQcYffj6j2nIrHVJ-4" edge="1">
          <mxGeometry width="50" height="50" relative="1" as="geometry">
            <mxPoint x="350" y="510" as="sourcePoint" />
            <mxPoint x="400" y="460" as="targetPoint" />
          </mxGeometry>
        </mxCell>
        <mxCell id="_XIWKQGDv7nmWlHFDAag-1" value="&lt;div class=&quot;flex-item-leading&quot;&gt;&lt;br&gt;&lt;br&gt;&lt;span style=&quot;background-color: transparent; color: light-dark(rgb(0, 0, 0), rgb(255, 255, 255));&quot;&gt;zuul/zuul-jobs&lt;/span&gt;&lt;/div&gt;&lt;div class=&quot;flex-item-main&quot;&gt;&lt;br&gt;&#x9;&#x9;&#x9;&#x9;&lt;/div&gt;&lt;br&gt;&#x9;&#x9;&#x9;&#x9;&lt;div class=&quot;flex-item-trailing&quot;&gt;&lt;/div&gt;" style="rounded=1;whiteSpace=wrap;html=1;fillStyle=dashed;fillColor=light-dark(#030303, #ededed);" parent="1" vertex="1">
          <mxGeometry x="370" y="210" width="120" height="60" as="geometry" />
        </mxCell>
        <mxCell id="_XIWKQGDv7nmWlHFDAag-3" value="" style="endArrow=classic;html=1;rounded=0;exitX=0.5;exitY=1;exitDx=0;exitDy=0;entryX=0.5;entryY=0;entryDx=0;entryDy=0;" parent="1" source="_XIWKQGDv7nmWlHFDAag-1" target="vDY9TQcYffj6j2nIrHVJ-3" edge="1">
          <mxGeometry width="50" height="50" relative="1" as="geometry">
            <mxPoint x="380" y="510" as="sourcePoint" />
            <mxPoint x="410" y="310" as="targetPoint" />
          </mxGeometry>
        </mxCell>
        <mxCell id="UBsjZDnq4vhWJKdfuB6H-3" value="" style="endArrow=classic;html=1;rounded=0;exitX=0;exitY=1;exitDx=0;exitDy=0;entryX=1;entryY=0;entryDx=0;entryDy=0;" edge="1" parent="1" source="vDY9TQcYffj6j2nIrHVJ-1" target="vDY9TQcYffj6j2nIrHVJ-4">
          <mxGeometry width="50" height="50" relative="1" as="geometry">
            <mxPoint x="560" y="430" as="sourcePoint" />
            <mxPoint x="610" y="380" as="targetPoint" />
          </mxGeometry>
        </mxCell>
        <mxCell id="UBsjZDnq4vhWJKdfuB6H-4" value="" style="endArrow=classic;html=1;rounded=0;exitX=0;exitY=0.5;exitDx=0;exitDy=0;entryX=1;entryY=0.5;entryDx=0;entryDy=0;" edge="1" parent="1" source="vDY9TQcYffj6j2nIrHVJ-1" target="vDY9TQcYffj6j2nIrHVJ-3">
          <mxGeometry width="50" height="50" relative="1" as="geometry">
            <mxPoint x="530" y="300" as="sourcePoint" />
            <mxPoint x="580" y="250" as="targetPoint" />
          </mxGeometry>
        </mxCell>
      </root>
    </mxGraphModel>
  </diagram>
</mxfile>
